<svg width="16" height="16" viewBox="0 0 16 16" fill="none" xmlns="http://www.w3.org/2000/svg">
<g clip-path="url(#clip0_62_118)">
<path d="M15.0547 7.59336V0.521993C15.0547 0.236528 14.8181 0 14.5327 0H7.46131C7.17584 0 6.93931 0.236528 6.93931 0.521993C6.93931 0.807457 7.184 1.05214 7.46946 1.05214L13.2929 1.0603L0.161561 14.1998C-0.0423428 14.4037 -0.0668112 14.7137 0.137092 14.9176C0.340996 15.1215 0.650929 15.097 0.854832 14.8931L13.9862 1.76173L13.9944 7.58521C13.9944 7.73202 14.0596 7.86251 14.1493 7.96039C14.2472 8.05826 14.3777 8.11535 14.5245 8.11535C14.8181 8.11535 15.0547 7.87883 15.0547 7.59336Z" fill="white"/>
</g>
<defs>
<clipPath id="clip0_62_118">
<rect width="16" height="16" fill="white"/>
</clipPath>
</defs>
</svg>
