<svg width="24" height="24" viewBox="0 0 24 24" fill="none" xmlns="http://www.w3.org/2000/svg">
<g clip-path="url(#clip0_72_411)">
<path d="M26.0734 13.7547C24.6062 13.7547 23.1625 13.525 21.7938 13.075C21.1234 12.8453 20.2984 13.0562 19.8906 13.4781L17.1906 15.5172C14.0594 13.8484 12.1328 11.9172 10.4875 8.81404L12.4656 6.18435C12.9813 5.67342 13.1641 4.92342 12.9438 4.22029C12.4891 2.84685 12.2594 1.4031 12.2594 -0.0640845C12.2594 -1.12815 11.3969 -1.99065 10.3328 -1.99065H5.92656C4.8625 -2.00002 4 -1.13752 4 -0.0734596C4 12.1 13.9047 22 26.0734 22C27.1375 22 28 21.1375 28 20.0734V15.6765C28 14.6172 27.1375 13.7547 26.0734 13.7547Z" fill="#597FAE"/>
</g>
<defs>
<clipPath id="clip0_72_411">
<rect width="24" height="24" fill="white"/>
</clipPath>
</defs>
</svg>
