<svg width="69" height="69" viewBox="0 0 69 69" fill="none" xmlns="http://www.w3.org/2000/svg">
<path d="M34.1236 67.0241C52.2248 67.0241 66.8986 52.3503 66.8986 34.2491C66.8986 16.148 52.2248 1.47412 34.1236 1.47412C16.0225 1.47412 1.34863 16.148 1.34863 34.2491C1.34863 52.3503 16.0225 67.0241 34.1236 67.0241Z" stroke="#CECECE" stroke-width="1.5" stroke-miterlimit="10"/>
<path d="M43.815 28.3841L42.5918 27.3804C41.9959 26.91 41.6195 26.91 41.1177 27.5686L32.1164 38.7027L27.9136 35.2213C27.3491 34.7509 26.9414 34.7822 26.5023 35.3468L25.53 36.57C25.0595 37.1659 25.0909 37.5422 25.6868 38.0127L31.6459 42.9681C32.2418 43.5013 32.6182 43.4072 33.0886 42.8741L44.0032 29.8895C44.4736 29.2622 44.4736 28.8859 43.815 28.3841Z" fill="#597FAE"/>
</svg>
