<svg width="166" height="47" viewBox="0 0 166 47" fill="none" xmlns="http://www.w3.org/2000/svg">
<path d="M62.5214 15.9196V3.7627H66.7184C68.5998 3.7627 70.0471 4.3416 71.0602 5.35467C72.0732 6.36775 72.6521 7.81501 72.6521 9.84116C72.6521 11.7226 72.218 13.3146 71.2049 14.3276C70.1918 15.4854 68.7446 15.9196 66.8631 15.9196H62.5214ZM63.5344 15.0513H66.7184C68.1657 15.0513 69.3235 14.6171 70.1918 13.7487C71.0602 12.8804 71.4943 11.5779 71.4943 9.84116C71.4943 8.24918 71.0602 6.94665 70.3365 6.0783C69.6129 5.20995 68.3104 4.77577 66.7184 4.77577H63.5344V15.0513Z" fill="black"/>
<path d="M83.6512 11.2884V11.5779H75.2571C75.4019 12.7357 75.6913 13.604 76.4149 14.1829C77.1386 14.7618 78.0069 15.196 79.1647 15.196C80.612 15.196 81.7698 14.7618 82.6381 13.7488L83.3618 14.3277C82.4934 15.4855 81.0462 16.2091 79.1647 16.2091C77.7175 16.2091 76.5597 15.7749 75.6913 14.9066C74.823 14.0382 74.3888 12.8804 74.3888 11.4332C74.3888 9.98591 74.823 8.82811 75.6913 7.95975C76.5597 7.0914 77.7175 6.65723 79.02 6.65723C80.4673 6.65723 81.6251 7.0914 82.4934 7.95975C83.217 8.68338 83.6512 9.84118 83.6512 11.2884ZM79.02 7.38085C78.0069 7.38085 77.1386 7.6703 76.5597 8.2492C75.836 8.8281 75.4019 9.69646 75.4019 10.7095H82.7829C82.7829 9.69646 82.3487 8.8281 81.6251 8.2492C80.9014 7.6703 80.0331 7.38085 79.02 7.38085Z" fill="black"/>
<path d="M89.0061 16.0648C87.5589 16.0648 86.2564 15.7753 85.2433 15.1964L85.6775 14.3281C86.6905 14.907 87.8483 15.1964 89.1509 15.1964C90.8876 15.1964 91.7559 14.6175 91.7559 13.4597C91.7559 13.0255 91.4665 12.5913 91.0323 12.3019C90.5981 12.0124 89.8745 11.8677 88.8614 11.5783C87.7036 11.2888 86.8353 10.9994 86.2564 10.5652C85.6775 10.2757 85.388 9.69684 85.388 8.97322C85.388 8.24959 85.6775 7.52597 86.4011 7.09179C86.98 6.65761 87.8483 6.36816 88.8614 6.36816C89.8745 6.36816 91.0323 6.65761 92.1901 7.09179L91.9007 7.96014C91.0323 7.52597 90.0192 7.23652 88.8614 7.23652C88.1378 7.23652 87.5589 7.38124 87.1247 7.67069C86.6905 7.96014 86.4011 8.24959 86.4011 8.82849C86.4011 9.26267 86.5458 9.69684 86.98 9.84157C87.4142 10.131 88.1378 10.2757 89.1509 10.5652C90.4534 10.8546 91.3217 11.1441 91.9007 11.5783C92.4796 12.0124 92.6243 12.5913 92.6243 13.315C92.6243 15.1964 91.4665 16.0648 89.0061 16.0648Z" fill="black"/>
<path d="M95.9529 4.92089C95.8081 5.06561 95.6634 5.21034 95.374 5.21034C95.0845 5.21034 94.9398 5.06561 94.7951 4.92089C94.6503 4.77616 94.5056 4.63144 94.5056 4.34198C94.5056 4.05253 94.6503 3.90781 94.7951 3.76308C94.9398 3.61836 95.0845 3.47363 95.374 3.47363C95.6634 3.47363 95.8081 3.61836 95.9529 3.76308C96.0976 3.90781 96.2423 4.05253 96.2423 4.34198C96.2423 4.63144 96.0976 4.77616 95.9529 4.92089ZM94.9398 15.92V6.65759H95.9529V15.92H94.9398Z" fill="black"/>
<path d="M102.755 19.2485C101.308 19.2485 100.15 18.9591 98.9923 18.3802V17.3671C99.5712 17.6565 100.295 17.946 100.729 18.0907C101.308 18.2354 101.887 18.3802 102.755 18.3802C105.071 18.3802 106.373 17.3671 106.373 15.1962V14.3279C105.505 15.1962 104.492 15.7751 102.9 15.7751C101.453 15.7751 100.295 15.3409 99.4264 14.4726C98.5581 13.6042 98.1239 12.4464 98.1239 11.1439C98.1239 9.69665 98.5581 8.68357 99.4264 7.81522C100.295 6.94687 101.453 6.5127 102.755 6.5127C104.202 6.5127 105.36 6.94687 106.229 7.81522V6.65742H107.097V15.0515C107.097 16.4987 106.663 17.5118 105.939 18.2354C105.36 18.8143 104.202 19.2485 102.755 19.2485ZM102.9 14.762C103.479 14.762 104.202 14.6173 104.781 14.3279C105.36 14.0384 105.794 13.6042 106.229 13.0253V8.97302C105.794 8.39412 105.36 7.95995 104.781 7.6705C104.202 7.38105 103.623 7.23632 102.9 7.23632C101.742 7.23632 100.874 7.52577 100.15 8.2494C99.4264 8.97302 99.137 9.84138 99.137 10.8545C99.137 12.0123 99.4264 12.8806 100.15 13.6042C100.874 14.4726 101.742 14.762 102.9 14.762Z" fill="black"/>
<path d="M109.847 15.9198V6.65742H110.715V7.81522C111.873 6.94687 113.031 6.5127 114.188 6.5127C115.491 6.5127 116.359 6.80215 116.938 7.52577C117.517 8.2494 117.806 9.26248 117.806 10.7097V15.9198H117.228V10.565C117.228 9.4072 116.938 8.53885 116.504 8.10467C116.07 7.6705 115.201 7.38105 114.333 7.38105C113.175 7.38105 112.017 7.81522 110.86 8.8283V15.9198H109.847Z" fill="black"/>
<path d="M129.529 11.2886V11.5781H121.135C121.28 12.7359 121.569 13.6042 122.293 14.1831C123.017 14.762 123.885 15.1962 125.043 15.1962C126.49 15.1962 127.648 14.762 128.516 13.749L129.24 14.3279C128.371 15.4857 126.924 16.2093 125.043 16.2093C123.595 16.2093 122.438 15.7751 121.569 14.9068C120.556 13.8937 120.122 12.7359 120.122 11.2886C120.122 9.84138 120.556 8.68357 121.425 7.81522C122.293 6.94687 123.451 6.5127 124.753 6.5127C126.201 6.5127 127.358 6.94687 128.227 7.81522C129.095 8.68357 129.529 9.84138 129.529 11.2886ZM124.753 7.38105C123.74 7.38105 122.872 7.6705 122.293 8.2494C121.569 8.8283 121.135 9.69665 121.135 10.7097H128.516C128.516 9.69665 128.082 8.8283 127.358 8.2494C126.779 7.6705 125.911 7.38105 124.753 7.38105Z" fill="black"/>
<path d="M135.753 16.0645C134.305 16.0645 133.147 15.6304 132.279 14.762C131.411 13.8937 130.977 12.7359 130.977 11.2886C130.977 9.84135 131.411 8.68355 132.279 7.81519C133.147 6.94684 134.305 6.51267 135.608 6.51267C137.055 6.51267 138.213 6.94684 139.081 7.81519V2.89453H139.95V15.9198H139.081V14.6173C138.213 15.6304 137.2 16.0645 135.753 16.0645ZM135.753 15.1962C136.331 15.1962 137.055 15.0515 137.634 14.762C138.213 14.4726 138.647 14.0384 139.081 13.4595V8.973C138.647 8.3941 138.213 7.95992 137.634 7.67047C137.055 7.38102 136.476 7.23629 135.753 7.23629C134.595 7.23629 133.726 7.52574 133.003 8.24937C132.279 8.973 131.99 9.84135 131.99 10.9992C131.99 12.157 132.279 13.17 133.003 13.8937C133.726 14.762 134.595 15.1962 135.753 15.1962Z" fill="black"/>
<path d="M151.093 16.0645C149.646 16.0645 148.488 15.6304 147.62 14.6173V15.9198H146.752V2.89453H147.62V7.81519C148.488 6.94684 149.646 6.51267 151.093 6.51267C152.396 6.51267 153.554 6.94684 154.422 7.81519C155.29 8.68355 155.725 9.84135 155.725 11.2886C155.725 12.7359 155.29 13.8937 154.422 14.762C153.554 15.6304 152.541 16.0645 151.093 16.0645ZM151.093 15.1962C152.251 15.1962 153.12 14.9067 153.843 14.1831C154.567 13.4595 154.856 12.4464 154.856 11.2886C154.856 10.1308 154.567 9.11772 153.843 8.53882C153.12 7.95992 152.251 7.52574 151.093 7.52574C150.514 7.52574 149.791 7.67047 149.212 7.95992C148.633 8.24937 148.054 8.68355 147.765 9.26245V13.7489C148.199 14.3278 148.633 14.762 149.212 15.0515C149.791 15.3409 150.37 15.1962 151.093 15.1962Z" fill="black"/>
<path d="M164.842 6.65723H165.855L161.803 16.3538C161.514 16.9327 161.224 17.3669 160.935 17.8011C160.645 18.2352 160.356 18.5247 160.066 18.6694C159.777 18.8141 159.487 18.9589 159.198 19.1036C158.909 19.1036 158.619 19.2483 158.185 19.2483C157.751 19.2483 157.317 19.2483 156.882 19.1036V18.2352C157.317 18.38 157.895 18.5247 158.185 18.5247C158.764 18.5247 159.343 18.38 159.632 18.0905C160.066 17.8011 160.356 17.2222 160.645 16.4985L156.303 6.94668H157.317L161.224 15.4855L164.842 6.65723Z" fill="black"/>
<path d="M8.53877 25.3271V36.0368H13.4594V36.9052H2.74976V36.0368H7.81515V25.3271H8.53877Z" fill="#5980AE"/>
<path d="M23.8796 28.6558L25.3269 25.3271H26.0505L21.1298 36.7605H20.2615L15.3408 25.3271H16.2092L17.6564 28.6558H23.8796ZM23.4454 29.5242H18.0906L20.8404 35.7474L23.4454 29.5242Z" fill="#5980AE"/>
<path d="M35.3129 36.7605H31.8395C30.6817 36.7605 29.9581 36.6158 29.3792 36.1816C28.945 35.7474 28.6556 35.3132 28.6556 34.8791C28.6556 34.0107 29.2345 33.2871 30.537 32.8529L28.945 30.2478C28.6556 29.8137 28.5109 29.6689 28.5109 29.6689C28.3661 29.5242 28.0767 29.3795 27.7872 29.3795V29.09H29.6687L32.129 32.5634C32.2737 32.5634 32.4184 32.5634 32.4184 32.5634H32.7079V30.8267C32.7079 30.2478 32.7079 29.8137 32.5632 29.6689C32.4184 29.3795 32.129 29.2348 31.5501 29.2348V28.9453H35.3129V29.2348C34.734 29.2348 34.2999 29.3795 34.1551 29.8137C34.1551 29.9584 34.1551 30.2478 34.1551 30.8267V34.8791C34.1551 35.458 34.1551 35.8921 34.2999 36.0369C34.4446 36.3263 34.734 36.471 35.3129 36.471V36.7605ZM32.7079 36.1816V33.1423C32.5632 33.1423 32.5632 33.1423 32.5632 33.1423C31.9843 33.1423 31.5501 33.2871 31.1159 33.5765C30.6817 33.866 30.3923 34.3002 30.3923 34.8791C30.3923 35.3132 30.537 35.7474 30.9712 36.0369C31.2606 36.3263 31.6948 36.3263 32.129 36.3263C32.2737 36.1816 32.5632 36.1816 32.7079 36.1816Z" fill="#5980AE"/>
<path d="M45.7332 28.6558L47.1804 25.3271H48.0488L43.1281 36.7605H42.2598L37.3391 25.3271H38.2075L39.6547 28.6558H45.7332ZM45.4437 29.5242H40.0889L42.8387 35.7474L45.4437 29.5242Z" fill="#5980AE"/>
<path d="M54.4167 37.0501C52.9695 37.0501 51.667 36.7607 50.5092 36.1818L51.0881 34.8792C52.1011 35.4581 53.2589 35.7476 54.5615 35.7476C56.0087 35.7476 56.7324 35.3134 56.7324 34.3003C56.7324 33.8662 56.5876 33.5767 56.1534 33.432C55.7193 33.2873 55.1404 32.9978 54.272 32.8531C52.9695 32.5636 52.1011 32.2742 51.667 31.84C51.0881 31.4058 50.7986 30.8269 50.7986 29.9586C50.7986 29.0902 51.0881 28.5113 51.8117 28.0771C52.3906 27.643 53.2589 27.3535 54.4167 27.3535C55.5745 27.3535 56.7324 27.643 57.8902 28.0771L57.456 29.3797C56.5876 28.9455 55.5745 28.656 54.4167 28.656C53.8378 28.656 53.2589 28.8008 52.9695 28.9455C52.5353 29.0902 52.3906 29.5244 52.3906 29.8138C52.3906 30.248 52.5353 30.5375 52.9695 30.8269C53.2589 30.9716 53.9826 31.2611 54.8509 31.4058C56.1535 31.6953 57.0218 31.9847 57.6007 32.4189C58.1796 32.8531 58.4691 33.432 58.4691 34.1556C58.4691 35.1687 58.1796 35.8923 57.6007 36.3265C56.5876 36.7607 55.5745 37.0501 54.4167 37.0501Z" fill="#5980AE"/>
<path d="M65.9946 36.7604V24.6035H67.4419V35.4579H74.6782V36.7604H65.9946Z" fill="#5980AE"/>
<path d="M84.9538 28.6558L86.401 25.3271H87.2694L82.3487 36.7605H81.4804L76.5597 25.3271H77.428L78.8753 28.6558H84.9538ZM84.5196 29.5242H79.1647L81.9145 35.7474L84.5196 29.5242Z" fill="#5980AE"/>
<path d="M91.3217 35.6029H97.5449V36.7607H89.2955V35.8923L95.374 28.5113H89.585V27.3535H97.5449V28.0771L91.3217 35.6029Z" fill="#5980AE"/>
<path d="M108.11 28.6558L109.557 25.3271H110.426L105.505 36.7605H104.637L99.7159 25.3271H100.584L102.032 28.6558H108.11ZM107.821 29.5242H102.466L105.216 35.7474L107.821 29.5242Z" fill="#5980AE"/>
<path d="M113.32 36.7599V27.3527H114.622V28.8C114.912 28.3658 115.346 27.9316 115.78 27.6422C116.359 27.3527 116.938 27.208 117.662 27.208C118.096 27.208 118.53 27.208 118.82 27.3527V28.8C118.385 28.6553 117.951 28.5105 117.517 28.5105C116.793 28.5105 116.07 28.8 115.491 29.5236C114.912 30.1025 114.767 30.9709 114.767 32.1287V36.7599H113.32Z" fill="#5980AE"/>
<path d="M130.108 32.1294V32.5636H122.004C122.148 33.5767 122.438 34.3003 123.161 34.8792C123.74 35.4581 124.609 35.7476 125.622 35.7476C126.924 35.7476 128.082 35.3134 128.806 34.3003L129.819 35.1687C128.95 36.4712 127.503 37.0501 125.477 37.0501C124.03 37.0501 122.727 36.6159 121.859 35.7476C120.99 34.8792 120.556 33.7214 120.556 32.1294C120.556 30.6822 120.99 29.5244 121.859 28.656C122.727 27.7877 123.885 27.3535 125.332 27.3535C126.924 27.3535 128.082 27.7877 128.95 28.656C129.674 29.5244 130.108 30.6822 130.108 32.1294ZM125.332 28.5113C124.464 28.5113 123.74 28.8008 123.161 29.2349C122.582 29.6691 122.148 30.3927 122.004 31.2611H128.661C128.516 30.3927 128.227 29.6691 127.648 29.2349C127.069 28.8008 126.345 28.5113 125.332 28.5113Z" fill="#5980AE"/>
<path d="M132.858 36.7601V27.3529H134.16V28.366C135.174 27.4977 136.187 27.0635 137.489 27.0635C138.647 27.0635 139.515 27.3529 140.239 27.9318C140.963 28.5107 141.252 29.5238 141.252 31.1158V36.6153H139.949V31.2605C139.949 30.1027 139.66 29.3791 139.226 28.9449C138.792 28.5107 138.068 28.366 137.344 28.366C136.187 28.366 135.174 28.8002 134.305 29.8133V36.7601H132.858Z" fill="#5980AE"/>
<path d="M151.672 36.7606L148.633 31.9847L145.883 34.7345V36.7606H144.581V23.7354H145.883V32.9978L151.238 27.3535H153.119L149.646 30.9716L153.264 36.7606H151.672Z" fill="#5980AE"/>
<path d="M163.829 35.6029C162.816 36.4712 161.658 36.9054 160.211 36.9054C158.764 36.9054 157.461 36.4712 156.448 35.6029C155.435 34.7345 155.001 33.5767 155.001 32.1295C155.001 30.6822 155.435 29.5244 156.448 28.656C157.461 27.7877 158.619 27.3535 160.211 27.3535C161.658 27.3535 162.961 27.7877 163.829 28.656C164.842 29.5244 165.276 30.6822 165.276 32.1295C165.276 33.5767 164.697 34.7345 163.829 35.6029ZM160.066 35.6029C161.079 35.6029 161.948 35.3134 162.671 34.5898C163.395 33.8662 163.684 32.9978 163.684 31.9847C163.684 30.9716 163.395 30.1033 162.671 29.3797C161.948 28.656 161.079 28.3666 160.066 28.3666C159.053 28.3666 158.04 28.656 157.461 29.3797C156.882 30.1033 156.448 30.8269 156.448 31.9847C156.448 32.9978 156.738 33.8662 157.461 34.5898C158.185 35.3134 159.053 35.6029 160.066 35.6029Z" fill="#5980AE"/>
<line x1="3.99602" y1="45.0996" x2="164.995" y2="44.4607" stroke="#597FAE" stroke-width="2" stroke-linecap="round" stroke-dasharray="2 4"/>
</svg>
