<svg width="44" height="47" viewBox="0 0 44 47" fill="none" xmlns="http://www.w3.org/2000/svg">
<g clip-path="url(#clip0_98_176)">
<path d="M23.315 5.5127H8.14258" stroke="#597FAE" stroke-width="3"/>
<path d="M21.7979 0.4552L24.8323 5.51268L21.7979 10.5702" stroke="#597FAE" stroke-width="3"/>
<path d="M2.57935 14.8185H17.7518" stroke="#597FAE" stroke-width="3"/>
<path d="M4.0965 9.76099L1.06201 14.8185L4.0965 19.8759" stroke="#597FAE" stroke-width="3"/>
<path d="M32.1655 19.4713L43.0897 26.1472L39.7517 38.6897L35.2 42.6851L34.4414 45.5679" stroke="black" stroke-width="3"/>
<path d="M35.4023 22.4047L34.0874 27.3104" stroke="black" stroke-width="3"/>
<path d="M39.1448 24.7311L37.8298 29.5863" stroke="black" stroke-width="3"/>
<path d="M30.3448 25.0346L33.4804 13.4024C33.8344 12.0368 33.0252 10.6713 31.7103 10.3173C30.3448 9.96328 28.9793 10.7725 28.6252 12.0874L25.085 25.338C24.7816 26.5518 23.5172 27.2598 22.3034 26.9564L22.1517 26.9058L20.9379 24.3771C20.2804 23.0116 18.6114 22.4047 17.2459 23.0621L16.7907 23.2644C15.4252 23.9219 14.8183 25.5909 15.4758 26.9564L21.1907 38.892L20.4321 41.7748" stroke="black" stroke-width="3"/>
</g>
<defs>
<clipPath id="clip0_98_176">
<rect width="44" height="46.023" fill="white"/>
</clipPath>
</defs>
</svg>
