<svg width="69" height="69" viewBox="0 0 69 69" fill="none" xmlns="http://www.w3.org/2000/svg">
<g clip-path="url(#clip0_56_107)">
<path d="M34.5 69C53.5538 69 69 53.5538 69 34.5C69 15.4462 53.5538 0 34.5 0C15.4462 0 0 15.4462 0 34.5C0 53.5538 15.4462 69 34.5 69Z" fill="#4D76A1"/>
<path fill-rule="evenodd" clip-rule="evenodd" d="M33.1968 49.6309H35.9046C35.9046 49.6309 36.7226 49.5411 37.1402 49.091C37.5245 48.6777 37.5122 47.9016 37.5122 47.9016C37.5122 47.9016 37.4593 44.2682 39.1457 43.7331C40.808 43.2061 42.9426 47.2447 45.2052 48.7976C46.9161 49.9729 48.2162 49.7152 48.2162 49.7152L54.2659 49.6309C54.2659 49.6309 57.4307 49.436 55.9301 46.9477C55.8071 46.7441 55.0562 45.107 51.432 41.743C47.6387 38.2222 48.1467 38.7916 52.7162 32.7013C55.499 28.9923 56.6115 26.7279 56.2641 25.7581C55.9326 24.8343 53.8859 25.0785 53.8859 25.0785L47.0742 25.1209C47.0742 25.1209 46.5693 25.052 46.1947 25.2759C45.8288 25.4954 45.5933 26.0071 45.5933 26.0071C45.5933 26.0071 44.5152 28.8773 43.0773 31.3182C40.0442 36.4688 38.8314 36.7406 38.3357 36.4208C37.1826 35.6755 37.4704 33.4264 37.4704 31.8287C37.4704 26.8374 38.2275 24.7562 35.9963 24.2175C35.2558 24.0385 34.7109 23.9204 32.8174 23.9014C30.3869 23.8762 28.3297 23.9088 27.1649 24.4795C26.39 24.8589 25.7923 25.7045 26.1563 25.7531C26.6065 25.8134 27.6262 26.028 28.1668 26.7642C28.8648 27.7137 28.8402 29.8465 28.8402 29.8465C28.8402 29.8465 29.2412 35.7222 27.9036 36.4522C26.9854 36.9528 25.7259 35.9307 23.0217 31.258C21.6361 28.8644 20.59 26.2187 20.59 26.2187C20.59 26.2187 20.3883 25.7242 20.0285 25.4598C19.5919 25.1394 18.9818 25.0373 18.9818 25.0373L12.509 25.0797C12.509 25.0797 11.5373 25.1068 11.1806 25.5293C10.8633 25.905 11.1554 26.6824 11.1554 26.6824C11.1554 26.6824 16.2229 38.5383 21.9609 44.5129C27.2221 49.9907 33.1968 49.6309 33.1968 49.6309Z" fill="white"/>
</g>
<defs>
<clipPath id="clip0_56_107">
<rect width="69" height="69" fill="white"/>
</clipPath>
</defs>
</svg>
